# xmcd CD database file
#
# Track frame offsets:
#	150
#	22662
#	48770
#	61146
#	83816
#	97277
#	110751
#	132715
#	151334
#	164271
#	189251
#	206580
#	229608
#	257769
#	271391
#
# Disc length: 3881 seconds
#
# Revision: 0
# Processed by: cddbd v1.5.2PL0 Copyright (c) Steve Scherf et al.
# Submitted via: CDex 1.51
#
DISCID=c60f270f
DTITLE=Matt Savage Trio - Quantum Leap
DYEAR=2006
DGENRE=Jazz
TTITLE0=Give Me a Break
TTITLE1=Couch Potatoe Blues
TTITLE2=Lullaby Of Birdland
TTITLE3=Serenity
TTITLE4=Free and Easy
TTITLE5=Curacao
TTITLE6=A Child is Born
TTITLE7=Wobble Waltz
TTITLE8=Closer Than You Think
TTITLE9=All the Things You Are
TTITLE10=Flights of Fancy
TTITLE11=Dreaming of You
TTITLE12=Hide and Seek
TTITLE13=Blues in 33/8
TTITLE14=Monk's Dream
EXTD=YEAR: 2006
EXTT0=
EXTT1=
EXTT2=
EXTT3=
EXTT4=
EXTT5=
EXTT6=
EXTT7=
EXTT8=
EXTT9=
EXTT10=
EXTT11=
EXTT12=
EXTT13=
EXTT14=
PLAYORDER=
